<svg xmlns="http://www.w3.org/2000/svg">
  <symbol viewBox="0 0 24 24" stroke-linecap="round" stroke-linejoin="round" id="icon--folder">
    <path d="M5 4h4l3 3h7a2 2 0 0 1 2 2v8a2 2 0 0 1 -2 2h-14a2 2 0 0 1 -2 -2v-11a2 2 0 0 1 2 -2"/>
  </symbol>
  <symbol viewBox="0 0 24 24" stroke-linecap="round" stroke-linejoin="round" id="icon--wiki-page">
    <path d="M6 4h11a2 2 0 0 1 2 2v12a2 2 0 0 1 -2 2h-11a1 1 0 0 1 -1 -1v-14a1 1 0 0 1 1 -1m3 0v18"/>
    <path d="M13 8l2 0"/>
    <path d="M13 12l2 0"/>
  </symbol>
</svg>
